<svg xmlns="http://www.w3.org/2000/svg" width="320" height="86" viewBox="0 0 320 86" role="img" aria-labelledby="title desc">
  <title id="title">Bloomsai</title>
  <desc id="desc">Bloomsai wordmark with the slogan Made for the Journey.</desc>
  <g fill="none" stroke="#f7f5f0" stroke-width="2" stroke-linecap="round" stroke-linejoin="round">
    <path d="M30 41c-7-6-8-16-1-23 8 3 12 11 9 20" />
    <path d="M43 36c-1-10 5-18 14-20 5 8 3 17-6 23" />
    <path d="M48 47c8-6 18-5 24 3-4 9-14 12-22 7" />
    <path d="M35 50c-9 4-18 1-23-8 6-7 15-8 23-2" />
    <path d="M42 43c-4 9-2 18 6 24 8-5 10-14 4-22" />
    <path d="M42 43h18" />
    <path d="M42 43l-14 13" />
    <path d="M42 43V21" />
  </g>
  <circle cx="42" cy="43" r="5" fill="#f7f5f0" />
  <text x="92" y="40" fill="#f7f5f0" font-family="Space Grotesk, Inter, Arial, sans-serif" font-size="25" font-weight="700" letter-spacing="4">BLOOMSAI</text>
  <line x1="92" y1="53" x2="258" y2="53" stroke="#f7f5f0" stroke-width="1" opacity=".35" />
  <text x="92" y="69" fill="#f7f5f0" font-family="Inter, Arial, sans-serif" font-size="9" font-weight="600" letter-spacing="3">MADE FOR THE JOURNEY</text>
</svg>
