<?xml version="1.0" encoding="utf-8"?>
<svg version="1.1" xmlns="http://www.w3.org/2000/svg" viewBox="0 0 192 192" role="img" aria-labelledby="america250-title">
  <title id="america250-title">Official America250 mark</title>
  <style>
    .blue{fill:#3171FF}.red{fill:#F90000}.white{fill:#FFFFFF}
  </style>
  <g>
    <path class="blue" d="M24.3,68.3C10.8,68.3,0,76,0,76v9.4c0,0,10.2-8.2,22.3-8.2S40.4,85,40.4,85c0.6-0.4,3.4-2.7,5.8-6C45.9,78.4,38.8,68.3,24.3,68.3L24.3,68.3z"/>
    <path class="red" d="M50.3,67.6c-0.4-4.4-7.7-12.2-24-12.2C12.4,55.4,0,62.2,0,62.2v9.5c0,0,11.1-7.1,24.1-7.1c16.6,0,23.6,9.9,24.3,11C49.7,73.1,50.6,70.3,50.3,67.6z"/>
    <path class="blue" d="M53.6,88.2c-0.1,3.6-0.3,7.4-0.6,11c0,0-4,10.6-17.6,18.5c0,0-5.7-0.3-14.1-1.4C23.5,115.1,46.5,102.7,53.6,88.2z"/>
    <path class="red" d="M53.6,82.6c-1.8,3.8-5.5,9.8-15.4,18.1c-11.1,9.3-21.7,14.4-22.6,14.8c-4-0.6-8.4-1.4-12.9-2.3c0,0,16.5-8.7,29.8-18.6C53.4,79,52.3,70.9,52.3,70.9C53.2,72.7,53.6,77.2,53.6,82.6L53.6,82.6z"/>
    <path class="blue" d="M110.9,117.8c0,0.6-0.1,1.2-0.2,1.6c-0.9,6-3.6,24.9-52.2,24.9c-30.3,0-58.4-6.4-58.4-6.4V128c0,0,28.2,5.7,58.4,5.7S104.9,127.5,110.9,117.8L110.9,117.8z"/>
    <path class="red" d="M58.1,130c-26.1,0-57.9-5.6-58.1-5.6v-9.6c0,0,23.3,5.9,56.4,5.9c27.1,0,48.4-4,53.6-18.9c0.4,2.6,0.7,5.9,0.8,9.1C110.4,113.4,105.9,130,58.1,130L58.1,130z"/>
    <path class="blue" d="M103.2,108.4c-1.5,1.4-3.6,2.7-6.1,3.9c-4.3-7.6-17.6-14.3-37.4-13.2c0.4-3.5,2.6-6.7,5.4-9.5C99.3,89.3,103.1,107.9,103.2,108.4z"/>
    <path class="red" d="M105.6,105.8c-7.2-20.8-36.8-19.3-37.1-19.3c4.7-3.6,10.3-6.1,13.7-7c17.6,0.3,25.7,10.4,26.2,18.8C108.4,99.7,108.1,102.6,105.6,105.8L105.6,105.8z"/>
    <path class="blue" d="M179.6,103.4c0,11.5-5.4,18.4-5.7,18.9c-3.5,1.2-7.4,1.6-11.7,1c0,0,8.1-5.8,8.1-17c0-20.4-20.4-33.1-54.1-33.1c-27.2,0-45.5,4.8-56.4,19.4L60.3,81c0,0,14.4-17.3,56.1-17.3C150,63.8,179.6,78.2,179.6,103.4z"/>
    <path class="red" d="M191.8,97.1c0,8.1-4.5,17.3-12.5,22.5c1.2-1.4,4.3-6.6,4.3-18c0-25.7-30.8-41.7-66.9-41.7c-41.8,0-56.1,15.7-56.3,16l0.6-11.4c0,0,17.1-14.1,56.2-14.1C164.5,50.4,191.8,70.6,191.8,97.1L191.8,97.1z"/>
    <path class="white" d="M48.4,75.5c-0.6,1.2-1.4,2.3-2.1,3.3c-0.3-0.5-7.4-10.7-22-10.7C10.8,68.2,0,75.9,0,76v-4.4c0,0,11.1-7.1,24.1-7.1C40.7,64.5,47.7,74.4,48.4,75.5L48.4,75.5z"/>
    <path class="white" d="M53.6,88.2c-7.1,14.5-30.1,26.9-32.4,28.1c-1.7-0.2-3.6-0.5-5.5-0.8c0.9-0.4,11.5-5.5,22.6-14.8c9.9-8.3,13.5-14.3,15.4-18.1C53.6,84.4,53.6,86.3,53.6,88.2L53.6,88.2z"/>
    <path class="white" d="M110.9,117.8c-6,9.8-20.8,15.9-52.4,15.9S0.2,128.1,0,128v-3.7c0,0,32,5.6,58.1,5.6c47.8,0,52.3-16.6,52.8-19.2C111,113.4,111,115.9,110.9,117.8L110.9,117.8z"/>
    <path class="white" d="M105.6,105.8c-0.6,0.9-1.4,1.7-2.4,2.6c-0.1-0.5-4-19.1-38.2-18.8c1.1-1.1,2.3-2.1,3.5-3C68.9,86.6,98.4,85.1,105.6,105.8L105.6,105.8z"/>
    <path class="white" d="M183.7,101.6c0,11.4-3.2,16.6-4.3,18c-1.7,1.1-3.6,2-5.6,2.7c0.4-0.5,5.7-7.4,5.7-18.9c0-25.2-29.5-39.6-63.3-39.6c-41.7,0-56,17.2-56.1,17.3l0.2-5.2c0.2-0.2,14.5-16,56.3-16C152.9,59.9,183.7,75.9,183.7,101.6L183.7,101.6z"/>
    <path class="blue" d="M159.6,138.1c4.7,0,7.6-0.9,8.8-1.4c-7,3.7-14.6,5.9-20.7,5.9c-20.1,0-32.1-18-32.1-38.4c0-18.8,11.5-28.4,11.5-28.4c3.7,0.3,7.2,0.9,10.4,1.6c0,0-11.9,8.9-11.9,26.2C125.6,122.6,140.1,138.1,159.6,138.1L159.6,138.1z"/>
    <path class="red" d="M188.4,114.2c-1.1,6.3-5.5,12.1-11.2,16.8c-4.1,2.1-9.4,3.5-15.6,3.5c-15.4,0-31.7-11.7-31.7-31c0-16.9,12-24.6,12.5-24.9c4,1.2,6.9,2.4,8.4,3.2c0,0-10.8,6.5-10.8,20.3s12.7,23.6,26.4,23.6C179.9,125.6,188.4,114.2,188.4,114.2z"/>
    <path class="white" d="M177.2,131c-2.7,2.2-5.6,4.2-8.8,5.8c-1.1,0.4-4,1.4-8.8,1.4c-19.7,0-34.1-15.5-34.1-34.5c0-17.3,11.9-26.2,11.9-26.2c1.7,0.4,3.5,0.9,4.8,1.2c-0.4,0.3-12.5,8-12.5,24.9c0,19.4,16.4,31,31.7,31C167.7,134.5,173,133.1,177.2,131L177.2,131z"/>
  </g>
</svg>
